- 
http://www.Speed.Cd
 
http://www.Speed.Cd       the fast  and The Hottest Private Tracker on the net

Please Seed back to make the speed Faster!!
 ............ NFO .............
-[IMG]http://i.imgur.com/vIwrKPu.jpg[/IMG]

Source: DVDR  L-S

^^ a.k.a Brutal 2012 .. aka 1,000 Times More Brutal 2012
 
http://www.imdb.com/title/tt1744760 
http://direct.asda.com/Thugz---DVD/003759224,default,pd.html

Childhood friends from Brooklyn, who go out for the night and end up getting involved in a fracas with a low-level gangster. Several months pass, they inadvertently discover where this gangster operates a numbers racket and decide to rob him.

General
Complete name                            : Thugz 2012 DVDRip x264 AAC-OFFLiNE.mp4
Format                                   : MPEG-4
Format profile                           : Base Media
Codec ID                                 : isom
File size                                : 700 MiB
Duration                                 : 1h 29mn
Overall bit rate mode                    : Variable
Overall bit rate                         : 1 093 Kbps
Encoded date                             : UTC 2013-03-05 21:30:36
Tagged date                              : UTC 2013-03-05 21:30:36

Video
ID                                       : 1
Format                                   : AVC
Format/Info                              : Advanced Video Codec
Format profile                           : High@L4.1
Format settings, CABAC                   : Yes
Format settings, ReFrames                : 3 frames
Codec ID                                 : avc1
Codec ID/Info                            : Advanced Video Coding
Duration                                 : 1h 29mn
Bit rate mode                            : Variable
Bit rate                                 : 962 Kbps
Maximum bit rate                         : 40.0 Mbps
Width                                    : 704 pixels
Height                                   : 384 pixels
Display aspect ratio                     : 1.85:1
Frame rate mode                          : Constant
Frame rate                               : 25.000 fps
Color space                              : YUV
Chroma subsampling                       : 4:2:0
Bit depth                                : 8 bits
Scan type                                : Progressive
Bits/(Pixel*Frame)                       : 0.142
Stream size                              : 616 MiB (88%)
Writing library                          : x264 core 130 r2273 b3065e6

Audio
ID                                       : 2
Format                                   : AAC
Format/Info                              : Advanced Audio Codec
Format profile                           : LC
Codec ID                                 : 40
Duration                                 : 1h 29mn
Bit rate mode                            : Variable
Bit rate                                 : 127 Kbps
Maximum bit rate                         : 174 Kbps
Channel(s)                               : 2 channels
Channel positions                        : Front: L R
Sampling rate                            : 48.0 KHz
Compression mode                         : Lossy
Stream size                              : 81.4 MiB (12%)
Language                                 : English
Encoded date                             : UTC 2013-03-05 19:02:10
Tagged date                              : UTC 2013-03-05 21:31:13

[img]http://i.imgur.com/73tRLvZ.png[/img]
[img]http://i.imgur.com/AtNROjT.png[/img]
[img]http://i.imgur.com/J9ahmlj.png[/img]
[img]http://i.imgur.com/Gx67g6Q.png[/img]
[img]http://i.imgur.com/iiUgDtg.png[/img]

Greets: ???